# xmcd CD database file generated by OrangeCD 5.0
#
# Track frame offsets:
#	150
#	24557
#	36010
#	75280
#	118982
#	140390
#	173642
#	211390
#	230792
#	267397
#	281810
#
# Disc length: 4193 seconds
#
# Revision: 0
# Processed by: cddbd v1.4PL0 Copyright (c) Steve Scherf et al.
# Submitted via: OrangeCD 5.0
#
DISCID=9b105f0b
DTITLE=Neil Young and The Bluenotes - Life In The City
DYEAR=1993
DGENRE=Blues
TTITLE0=Another Shoulder
TTITLE1=Band Intro
TTITLE2=Ain't It The Truth
TTITLE3=Bad News Is Coming To Town
TTITLE4=Hey Hey
TTITLE5=One Thing
TTITLE6=Twilight
TTITLE7=Life In The City
TTITLE8=Soul Of A Woman
TTITLE9=Sunny Inside
TTITLE10=This Notes For You
EXTD=Recorded Live In Philadelphia\n24 april 1989
EXTT0=
EXTT1=
EXTT2=
EXTT3=
EXTT4=
EXTT5=
EXTT6=
EXTT7=
EXTT8=
EXTT9=
EXTT10=
PLAYORDER=
